HIERARCHY
ROOT mixamorig:Hips
{
	OFFSET 0.00 0.00 0.00
	CHANNELS 6 Xposition Yposition Zposition Zrotation Yrotation Xrotation
	JOINT mixamorig:Spine
	{
		OFFSET	0.0000	10.1816	0.1315
		CHANNELS 3 Zrotation Yrotation Xrotation
		JOINT mixamorig:Spine1
		{
			OFFSET	0.0000	10.0835	-1.0008
			CHANNELS 3 Zrotation Yrotation Xrotation
			JOINT mixamorig:Spine2
			{
				OFFSET	0.0000	9.1000	-1.3734
				CHANNELS 3 Zrotation Yrotation Xrotation
				JOINT mixamorig:Neck
				{
					OFFSET	0.0000	16.6717	-2.5162
					CHANNELS 3 Zrotation Yrotation Xrotation
					JOINT mixamorig:Head
					{
						OFFSET	-0.0000	9.6179	1.6850
						CHANNELS 3 Zrotation Yrotation Xrotation
						JOINT mixamorig:HeadTop_End
						{
							OFFSET	0.0000	17.8152	2.5850
							CHANNELS 3 Zrotation Yrotation Xrotation
							End Site
							{
								OFFSET 0.0000 0.0000 0.0000
							}
						}
						JOINT mixamorig:LeftEye
						{
							OFFSET	3.0675	6.4095	9.2836
							CHANNELS 3 Zrotation Yrotation Xrotation
							End Site
							{
								OFFSET 0.0000 0.0000 0.0000
							}
						}
						JOINT mixamorig:RightEye
						{
							OFFSET	-3.0676	6.4095	9.2835
							CHANNELS 3 Zrotation Yrotation Xrotation
							End Site
							{
								OFFSET 0.0000 0.0000 0.0000
							}
						}
					}
				}
				JOINT mixamorig:LeftShoulder
				{
					OFFSET	4.5705	10.9460	-2.6280
					CHANNELS 3 Zrotation Yrotation Xrotation
					JOINT mixamorig:LeftArm
					{
						OFFSET	10.5893	-0.5824	-2.2321
						CHANNELS 3 Zrotation Yrotation Xrotation
						JOINT mixamorig:LeftForeArm
						{
							OFFSET	27.7308	-0.8050	-2.3459
							CHANNELS 3 Zrotation Yrotation Xrotation
							JOINT mixamorig:LeftHand
							{
								OFFSET	28.2754	-0.7243	1.5819
								CHANNELS 3 Zrotation Yrotation Xrotation
								JOINT mixamorig:LeftHandThumb1
								{
									OFFSET	1.9768	-1.4321	3.1303
									CHANNELS 3 Zrotation Yrotation Xrotation
									JOINT mixamorig:LeftHandThumb2
									{
										OFFSET	2.6262	-2.0520	2.5056
										CHANNELS 3 Zrotation Yrotation Xrotation
										JOINT mixamorig:LeftHandThumb3
										{
											OFFSET	2.6086	-1.6384	1.4960
											CHANNELS 3 Zrotation Yrotation Xrotation
											End Site
											{
												OFFSET 1.6082 -1.1610 1.5598
											}
										}
									}
								}
								JOINT mixamorig:LeftHandIndex1
								{
									OFFSET	8.7164	-1.5021	3.1818
									CHANNELS 3 Zrotation Yrotation Xrotation
									JOINT mixamorig:LeftHandIndex2
									{
										OFFSET	3.5376	-0.8731	0.4888
										CHANNELS 3 Zrotation Yrotation Xrotation
										JOINT mixamorig:LeftHandIndex3
										{
											OFFSET	2.6995	-0.9224	0.4174
											CHANNELS 3 Zrotation Yrotation Xrotation
											End Site
											{
												OFFSET 2.2837 -0.6697 0.2474
											}
										}
									}
								}
								JOINT mixamorig:LeftHandMiddle1
								{
									OFFSET	9.3748	-1.4680	0.9189
									CHANNELS 3 Zrotation Yrotation Xrotation
									JOINT mixamorig:LeftHandMiddle2
									{
										OFFSET	3.6134	-0.7746	0.1449
										CHANNELS 3 Zrotation Yrotation Xrotation
										JOINT mixamorig:LeftHandMiddle3
										{
											OFFSET	2.8303	-0.8314	0.0792
											CHANNELS 3 Zrotation Yrotation Xrotation
											End Site
											{
												OFFSET 2.7849 -0.5114 0.1171
											}
										}
									}
								}
								JOINT mixamorig:LeftHandRing1
								{
									OFFSET	9.0730	-1.7773	-0.9460
									CHANNELS 3 Zrotation Yrotation Xrotation
									JOINT mixamorig:LeftHandRing2
									{
										OFFSET	3.0963	-0.5513	-0.2393
										CHANNELS 3 Zrotation Yrotation Xrotation
										JOINT mixamorig:LeftHandRing3
										{
											OFFSET	2.8588	-0.6503	-0.1853
											CHANNELS 3 Zrotation Yrotation Xrotation
											End Site
											{
												OFFSET 2.5536 -0.6712 -0.1945
											}
										}
									}
								}
								JOINT mixamorig:LeftHandPinky1
								{
									OFFSET	8.1210	-2.3975	-2.8769
									CHANNELS 3 Zrotation Yrotation Xrotation
									JOINT mixamorig:LeftHandPinky2
									{
										OFFSET	3.4503	-0.6398	-0.8039
										CHANNELS 3 Zrotation Yrotation Xrotation
										JOINT mixamorig:LeftHandPinky3
										{
											OFFSET	2.0317	-0.3919	-0.4345
											CHANNELS 3 Zrotation Yrotation Xrotation
											End Site
											{
												OFFSET 1.9042 -0.2980 -0.4342
											}
										}
									}
								}
							}
						}
					}
				}
				JOINT mixamorig:RightShoulder
				{
					OFFSET	-4.5699	10.9462	-2.6281
					CHANNELS 3 Zrotation Yrotation Xrotation
					JOINT mixamorig:RightArm
					{
						OFFSET	-10.5898	-0.5826	-2.2321
						CHANNELS 3 Zrotation Yrotation Xrotation
						JOINT mixamorig:RightForeArm
						{
							OFFSET	-27.7309	-0.8051	-2.3459
							CHANNELS 3 Zrotation Yrotation Xrotation
							JOINT mixamorig:RightHand
							{
								OFFSET	-28.2754	-0.7244	1.5819
								CHANNELS 3 Zrotation Yrotation Xrotation
								JOINT mixamorig:RightHandPinky1
								{
									OFFSET	-8.1207	-2.3941	-2.8773
									CHANNELS 3 Zrotation Yrotation Xrotation
									JOINT mixamorig:RightHandPinky2
									{
										OFFSET	-3.4503	-0.6397	-0.8040
										CHANNELS 3 Zrotation Yrotation Xrotation
										JOINT mixamorig:RightHandPinky3
										{
											OFFSET	-2.0316	-0.3918	-0.4345
											CHANNELS 3 Zrotation Yrotation Xrotation
											End Site
											{
												OFFSET -1.9042 -0.2979 -0.4343
											}
										}
									}
								}
								JOINT mixamorig:RightHandRing1
								{
									OFFSET	-9.0726	-1.7739	-0.9464
									CHANNELS 3 Zrotation Yrotation Xrotation
									JOINT mixamorig:RightHandRing2
									{
										OFFSET	-3.0963	-0.5512	-0.2393
										CHANNELS 3 Zrotation Yrotation Xrotation
										JOINT mixamorig:RightHandRing3
										{
											OFFSET	-2.8588	-0.6502	-0.1853
											CHANNELS 3 Zrotation Yrotation Xrotation
											End Site
											{
												OFFSET -2.5536 -0.6711 -0.1945
											}
										}
									}
								}
								JOINT mixamorig:RightHandMiddle1
								{
									OFFSET	-9.3744	-1.4646	0.9184
									CHANNELS 3 Zrotation Yrotation Xrotation
									JOINT mixamorig:RightHandMiddle2
									{
										OFFSET	-3.6134	-0.7745	0.1449
										CHANNELS 3 Zrotation Yrotation Xrotation
										JOINT mixamorig:RightHandMiddle3
										{
											OFFSET	-2.8303	-0.8313	0.0792
											CHANNELS 3 Zrotation Yrotation Xrotation
											End Site
											{
												OFFSET -2.7849 -0.5114 0.1170
											}
										}
									}
								}
								JOINT mixamorig:RightHandIndex1
								{
									OFFSET	-8.7160	-1.4988	3.1813
									CHANNELS 3 Zrotation Yrotation Xrotation
									JOINT mixamorig:RightHandIndex2
									{
										OFFSET	-3.5377	-0.8729	0.4888
										CHANNELS 3 Zrotation Yrotation Xrotation
										JOINT mixamorig:RightHandIndex3
										{
											OFFSET	-2.6995	-0.9222	0.4173
											CHANNELS 3 Zrotation Yrotation Xrotation
											End Site
											{
												OFFSET -2.2838 -0.6696 0.2474
											}
										}
									}
								}
								JOINT mixamorig:RightHandThumb1
								{
									OFFSET	-1.9765	-1.4291	3.1299
									CHANNELS 3 Zrotation Yrotation Xrotation
									JOINT mixamorig:RightHandThumb2
									{
										OFFSET	-2.6263	-2.0519	2.5056
										CHANNELS 3 Zrotation Yrotation Xrotation
										JOINT mixamorig:RightHandThumb3
										{
											OFFSET	-2.6086	-1.6383	1.4960
											CHANNELS 3 Zrotation Yrotation Xrotation
											End Site
											{
												OFFSET -1.6083 -1.1610 1.5598
											}
										}
									}
								}
							}
						}
					}
				}
			}
		}
	}
	JOINT mixamorig:LeftUpLeg
	{
		OFFSET	8.2078	-6.7517	-1.5996
		CHANNELS 3 Zrotation Yrotation Xrotation
		JOINT mixamorig:LeftLeg
		{
			OFFSET	0.0000	-44.3132	-2.2711
			CHANNELS 3 Zrotation Yrotation Xrotation
			JOINT mixamorig:LeftFoot
			{
				OFFSET	0.0000	-44.1978	-5.4110
				CHANNELS 3 Zrotation Yrotation Xrotation
				JOINT mixamorig:LeftToeBase
				{
					OFFSET	0.0000	-8.7286	10.7105
					CHANNELS 3 Zrotation Yrotation Xrotation
					End Site
					{
						OFFSET 0.0000 -0.0007 9.2781
					}
				}
			}
		}
	}
	JOINT mixamorig:RightUpLeg
	{
		OFFSET	-8.2078	-6.7517	-1.5996
		CHANNELS 3 Zrotation Yrotation Xrotation
		JOINT mixamorig:RightLeg
		{
			OFFSET	-0.0000	-44.3133	-2.2711
			CHANNELS 3 Zrotation Yrotation Xrotation
			JOINT mixamorig:RightFoot
			{
				OFFSET	-0.0000	-44.1978	-5.4110
				CHANNELS 3 Zrotation Yrotation Xrotation
				JOINT mixamorig:RightToeBase
				{
					OFFSET	-0.0000	-8.7286	10.7105
					CHANNELS 3 Zrotation Yrotation Xrotation
					End Site
					{
						OFFSET 0.0000 -0.0007 9.2781
					}
				}
			}
		}
	}
}
MOTION
Frames: 4
Frame Time: 0.0333333
0.9452 97.0328 2.5832 0.2983 -32.4892 -1.6820 1.6858 16.0258 5.4520 0.9035 0.8485 4.3671 0.9143 0.8686 4.3611 -2.6022 1.4178 0.8931 -8.8658 5.0472 0.1460 0.0000 0.0000 0.0000 0.0000 0.0000 0.0000 0.0000 0.0000 0.0000 -9.1245 -12.3337 5.9800 -46.3351 -41.5209 -21.5199 175.2596 -61.4351 -177.2929 17.4641 4.2026 35.6569 0.6318 14.0271 9.1334 -10.6876 5.7127 3.4546 27.1239 64.5352 38.8352 -77.9432 2.4322 8.1303 -87.4670 3.2594 10.8366 -56.1300 -2.2788 7.2542 -81.1176 -2.4093 7.3542 -89.0718 -2.0836 4.2898 -58.9456 -0.8306 2.2423 -82.5476 -8.7478 6.4547 -90.8781 -6.1128 -2.7434 -52.0842 -3.8534 -2.6913 -86.4166 -15.1783 5.6660 -90.6740 -13.5957 -8.7594 -51.9629 -6.0073 -9.7201 4.7446 18.7607 2.9255 53.7147 49.2991 5.0283 -174.4087 67.9880 -176.3541 -35.4556 -5.7202 7.4726 90.1635 16.6589 5.5466 86.7566 12.0932 -12.9483 55.5048 6.5953 -10.1698 88.2603 8.2037 6.7873 88.4354 5.8263 -2.8765 54.0115 4.0282 -2.4070 87.5613 1.9080 7.7232 85.7183 2.0867 4.0702 60.3631 0.9040 2.9253 84.3416 -3.0186 8.5549 84.1601 -2.9634 10.5373 57.5295 2.1144 7.4227 9.6133 -23.0397 1.0241 3.1899 0.9144 4.2082 -53.9704 -33.4672 67.1135 7.2617 16.7958 -24.0583 -3.2786 -10.0604 39.0496 -8.0603 -2.6112 -12.3255 -0.0000 0.0000 -0.0852 -6.6146 -9.4938 -23.0406 -2.4067 -4.1835 42.1611 6.4612 0.5217 -15.8475 -0.0000 0.0000 -0.0000 
0.1425 96.3738 1.9592 -0.1055 -29.3838 -2.7026 2.5212 15.8157 5.8283 1.2780 0.6798 4.6419 1.2886 0.7114 4.6347 -2.8154 1.3471 0.9659 -8.5324 4.3652 0.6801 0.0000 0.0000 0.0000 0.0000 0.0000 0.0000 0.0000 0.0000 0.0000 -9.9392 -12.0146 6.0219 -48.8560 -40.9811 -18.5233 175.2138 -61.8905 -177.2409 18.2857 2.5019 35.4243 0.6318 14.0271 9.1334 -10.6876 5.7127 3.4546 27.1239 64.5352 38.8352 -77.9433 2.4321 8.1303 -87.4670 3.2594 10.8366 -56.1300 -2.2788 7.2542 -81.1176 -2.4093 7.3542 -89.0719 -2.0836 4.2898 -58.9456 -0.8306 2.2423 -82.5476 -8.7478 6.4547 -90.8781 -6.1128 -2.7434 -52.0842 -3.8534 -2.6913 -86.4166 -15.1783 5.6660 -90.6741 -13.5957 -8.7594 -51.9629 -6.0073 -9.7201 3.8117 18.3773 2.5655 53.7727 48.5534 5.2750 -174.4275 67.8767 -176.3743 -35.8061 -4.8993 7.7645 90.1635 16.6589 5.5466 86.7566 12.0932 -12.9483 55.5048 6.5953 -10.1698 88.2603 8.2037 6.7873 88.4354 5.8263 -2.8765 54.0115 4.0282 -2.4070 87.5613 1.9080 7.7232 85.7184 2.0867 4.0702 60.3631 0.9040 2.9253 84.3416 -3.0186 8.5549 84.1601 -2.9634 10.5373 57.5295 2.1144 7.4227 9.6133 -23.0397 1.0241 3.1899 0.9143 4.2082 -53.9704 -33.4672 67.1135 8.0182 16.4339 -25.1253 -3.7453 -9.8550 43.6892 -7.1886 -5.7688 -10.9861 -0.0000 -0.0000 -6.1063 -7.6267 -11.3754 -20.7437 -1.6429 -5.3531 44.0337 6.3279 0.6114 -18.2102 0.0000 -0.0000 -0.0000 
-0.6622 96.1499 1.3398 -0.1102 -27.1458 -3.4529 3.2340 15.7744 6.0424 1.5798 0.6827 4.8089 1.5916 0.7215 4.7997 -3.1020 1.3152 1.2343 -8.1351 3.8101 1.4579 0.0000 0.0000 0.0000 0.0000 0.0000 0.0000 0.0000 0.0000 0.0000 -10.7664 -11.1273 5.8327 -52.1810 -39.9489 -14.1894 175.1621 -62.3870 -177.1825 19.2141 0.6506 35.2189 0.6318 14.0271 9.1334 -10.6876 5.7127 3.4546 27.1239 64.5352 38.8352 -77.9433 2.4321 8.1303 -87.4670 3.2594 10.8366 -56.1300 -2.2788 7.2542 -81.1176 -2.4093 7.3542 -89.0719 -2.0836 4.2898 -58.9456 -0.8306 2.2424 -82.5476 -8.7478 6.4547 -90.8781 -6.1128 -2.7434 -52.0842 -3.8534 -2.6913 -86.4166 -15.1783 5.6660 -90.6740 -13.5957 -8.7594 -51.9629 -6.0073 -9.7201 3.6475 18.2715 2.4955 53.7226 47.3035 5.8408 -174.4590 67.6877 -176.4084 -36.2147 -4.2582 8.1664 90.1635 16.6589 5.5466 86.7566 12.0932 -12.9483 55.5048 6.5953 -10.1698 88.2603 8.2037 6.7873 88.4354 5.8263 -2.8765 54.0115 4.0282 -2.4070 87.5613 1.9080 7.7232 85.7183 2.0867 4.0702 60.3631 0.9039 2.9253 84.3416 -3.0186 8.5549 84.1601 -2.9634 10.5373 57.5295 2.1144 7.4227 9.6133 -23.0397 1.0241 3.1899 0.9144 4.2082 -53.9704 -33.4672 67.1135 8.5102 16.1429 -27.5412 -4.8917 -9.4353 48.9661 -7.0378 -8.1701 -4.0981 0.9785 0.1518 -11.8780 -8.6269 -12.7077 -18.4421 -1.5798 -6.6112 44.4963 6.5725 0.7301 -19.6255 -0.0000 0.0000 0.0000 
-1.4763 96.2282 0.6858 0.3667 -26.4102 -4.1425 3.6225 15.9980 6.0717 1.7051 0.9424 4.8503 1.7201 0.9836 4.8375 -3.3699 1.2992 1.6214 -7.6388 3.3157 2.3684 0.0000 0.0000 0.0000 0.0000 0.0000 0.0000 0.0000 0.0000 0.0000 -11.4195 -9.7715 5.4112 -55.4793 -38.3437 -9.2950 175.0882 -63.0659 -177.0993 19.8333 -0.8358 35.1719 0.6318 14.0271 9.1334 -10.6876 5.7127 3.4546 27.1239 64.5352 38.8352 -77.9433 2.4321 8.1303 -87.4670 3.2594 10.8366 -56.1299 -2.2787 7.2542 -81.1176 -2.4093 7.3542 -89.0719 -2.0836 4.2898 -58.9456 -0.8306 2.2424 -82.5476 -8.7478 6.4547 -90.8781 -6.1128 -2.7434 -52.0842 -3.8534 -2.6913 -86.4166 -15.1783 5.6660 -90.6740 -13.5957 -8.7594 -51.9629 -6.0073 -9.7201 4.1959 18.5156 2.6985 53.7387 45.7087 6.6010 -174.4984 67.4470 -176.4509 -36.5009 -4.0362 8.5493 90.1635 16.6589 5.5466 86.7566 12.0932 -12.9483 55.5048 6.5953 -10.1698 88.2602 8.2037 6.7873 88.4354 5.8263 -2.8765 54.0115 4.0282 -2.4070 87.5613 1.9080 7.7232 85.7183 2.0867 4.0702 60.3631 0.9039 2.9253 84.3416 -3.0187 8.5549 84.1601 -2.9634 10.5373 57.5295 2.1144 7.4227 9.6133 -23.0397 1.0241 3.1899 0.9143 4.2082 -53.9704 -33.4672 67.1135 8.9626 16.1635 -29.8862 -5.9593 -8.5505 54.2504 -8.0114 -9.6193 0.5309 2.6639 0.4372 -10.8712 -9.1399 -12.9904 -16.6182 -2.1507 -6.7396 44.1534 7.1557 0.8462 -20.4382 0.0000 -0.0000 0.0001 
